<svg width="25" height="24" viewBox="0 0 25 24" fill="none" xmlns="http://www.w3.org/2000/svg">
<path d="M20.1498 9.04L15.3098 8.62L13.4198 4.17C13.0798 3.36 11.9198 3.36 11.5798 4.17L9.68983 8.63L4.85983 9.04C3.97983 9.11 3.61983 10.21 4.28983 10.79L7.95983 13.97L6.85983 18.69C6.65983 19.55 7.58983 20.23 8.34983 19.77L12.4998 17.27L16.6498 19.78C17.4098 20.24 18.3398 19.56 18.1398 18.7L17.0398 13.97L20.7098 10.79C21.3798 10.21 21.0298 9.11 20.1498 9.04ZM12.4998 15.4L8.73983 17.67L9.73983 13.39L6.41983 10.51L10.7998 10.13L12.4998 6.1L14.2098 10.14L18.5898 10.52L15.2698 13.4L16.2698 17.68L12.4998 15.4Z" fill="#C3C3C3"/>
</svg>
