<svg width="24" height="25" viewBox="0 0 24 25" fill="none" xmlns="http://www.w3.org/2000/svg">
<g clip-path="url(#clip0_2003_655)">
<path d="M15.5006 14.5006H14.7106L14.4306 14.2306C15.6306 12.8306 16.2506 10.9206 15.9106 8.89063C15.4406 6.11063 13.1206 3.89063 10.3206 3.55063C6.09063 3.03063 2.53063 6.59063 3.05063 10.8206C3.39063 13.6206 5.61063 15.9406 8.39063 16.4106C10.4206 16.7506 12.3306 16.1306 13.7306 14.9306L14.0006 15.2106V16.0006L18.2506 20.2506C18.6606 20.6606 19.3306 20.6606 19.7406 20.2506C20.1506 19.8406 20.1506 19.1706 19.7406 18.7606L15.5006 14.5006ZM9.50063 14.5006C7.01063 14.5006 5.00063 12.4906 5.00063 10.0006C5.00063 7.51063 7.01063 5.50063 9.50063 5.50063C11.9906 5.50063 14.0006 7.51063 14.0006 10.0006C14.0006 12.4906 11.9906 14.5006 9.50063 14.5006Z" fill="#797979"/>
</g>
<defs>
<clipPath id="clip0_2003_655">
<rect width="24" height="24" fill="white" transform="translate(0 0.5)"/>
</clipPath>
</defs>
</svg>
